HIERARCHY
ROOT Hips
{
	OFFSET 0.00000 0.00000 0.00000
	CHANNELS 6 Xposition Yposition Zposition Zrotation Yrotation Xrotation 
	JOINT LHipJoint
	{
		OFFSET 0 0 0
		CHANNELS 3 Zrotation Yrotation Xrotation
		JOINT LeftHip
		{
			OFFSET 1.54859 -1.61379 0.86856
			CHANNELS 3 Zrotation Yrotation Xrotation
			JOINT LeftKnee
			{
				OFFSET 2.25087 -6.18423 0.00000
				CHANNELS 3 Zrotation Yrotation Xrotation
				JOINT LeftAnkle
				{
					OFFSET 2.40328 -6.60297 0.00000
					CHANNELS 3 Zrotation Yrotation Xrotation
					JOINT LeftToe
					{
						OFFSET 0.17435 -0.47901 2.02453
						CHANNELS 3 Zrotation Yrotation Xrotation
						End Site
						{
							OFFSET 0.00000 -0.00000 1.04844
						}
					}
				}
			}
		}
	}
	JOINT RHipJoint
	{
		OFFSET 0 0 0
		CHANNELS 3 Zrotation Yrotation Xrotation
		JOINT RightHip
		{
			OFFSET -1.54669 -1.61379 0.86856
			CHANNELS 3 Zrotation Yrotation Xrotation
			JOINT RightKnee
			{
				OFFSET -2.28132 -6.26789 0.00000
				CHANNELS 3 Zrotation Yrotation Xrotation
				JOINT RightAnkle
				{
					OFFSET -2.51636 -6.91365 0.00000
					CHANNELS 3 Zrotation Yrotation Xrotation
					JOINT RightToe
					{
						OFFSET -0.15124 -0.41552 2.21090
						CHANNELS 3 Zrotation Yrotation Xrotation
						End Site
						{
							OFFSET -0.00000 -0.00000 1.13399
						}
					}
				}
			}
		}
	}
	JOINT lowerback
	{
		OFFSET 0 0 0
		CHANNELS 3 Zrotation Yrotation Xrotation
		JOINT Chest
		{
			OFFSET -0.04287 2.26161 -0.25690
			CHANNELS 3 Zrotation Yrotation Xrotation
			JOINT Chest2
			{
				OFFSET 0.02248 2.28395 -0.10140
				CHANNELS 3 Zrotation Yrotation Xrotation
				JOINT lowerneck
				{
					OFFSET 0 0 0
					CHANNELS 3 Zrotation Yrotation Xrotation
					JOINT Neck
					{
						OFFSET -0.11644 1.38496 0.11345
						CHANNELS 3 Zrotation Yrotation Xrotation
						JOINT Head
						{
							OFFSET 0.29383 1.36600 0.06642
							CHANNELS 3 Zrotation Yrotation Xrotation
							End Site
							{
								OFFSET 0.11075 1.41395 -0.00294
							}
						}
					}
				}
				JOINT LeftCollar
				{
					OFFSET 0 0 0
					CHANNELS 3 Zrotation Yrotation Xrotation
					JOINT LeftShoulder
					{
						OFFSET 3.51628 0.59542 -0.30346
CHANNELS 3 Zrotation Xrotation Yrotation
						JOINT LeftElbow
						{
OFFSET 0 -4.764050 0.000000
CHANNELS 3 Zrotation Xrotation Yrotation
							JOINT LeftWrist
							{
OFFSET 0 -3.137590 -0.000000
CHANNELS 3 Zrotation Xrotation Yrotation
								JOINT lhand
								{
									OFFSET 0 0 0
CHANNELS 3 Zrotation Xrotation Yrotation
									JOINT LFingers
									{
OFFSET 0 -0.732260 -0.000000
CHANNELS 3 Zrotation Xrotation Yrotation
										End Site
										{
OFFSET 0 -0.590370 -0.000000
										}
									}
								}
								JOINT LThumb
								{
OFFSET 0 0.000000 0.000000
CHANNELS 3 Zrotation Xrotation Yrotation
									End Site
									{
OFFSET 0 -0.599380 0.599380
									}
								}
							}
						}
					}
				}
				JOINT RightCollar
				{
					OFFSET 0 0 0
					CHANNELS 3 Zrotation Yrotation Xrotation
					JOINT RightShoulder
					{
						OFFSET -3.30990 0.84213 -0.36430
CHANNELS 3 Zrotation Xrotation Yrotation
						JOINT RightElbow
						{
OFFSET 0 -5.101610 -0.000000
CHANNELS 3 Zrotation Xrotation Yrotation
							JOINT RightWrist
							{
OFFSET 0 -3.232670 -0.000000
CHANNELS 3 Zrotation Xrotation Yrotation
								JOINT rhand
								{
									OFFSET 0 0 0
CHANNELS 3 Zrotation Xrotation Yrotation
									JOINT RFingers
									{
OFFSET 0 -0.702000 -0.000000
CHANNELS 3 Zrotation Xrotation Yrotation
										End Site
										{
OFFSET 0 -0.565970 -0.000000
										}
									}
								}
								JOINT RThumb
								{
OFFSET 0 0.000000 0.000000
CHANNELS 3 Zrotation Xrotation Yrotation
									End Site
									{
OFFSET 0 -0.574610 0.574610
									}
								}
							}
						}
					}
				}
			}
		}
	}
}
MOTION
Frames: 10
Frame Time: 0.008333333333333333
10.831840 14.920313 3.221704 -190.611482 70.184338 -185.093467 0.000000 0.000000 0.000000 -28.562961 11.267986 20.808898 9.344191 16.998488 57.235365 -0.434731 11.915499 -1.625576 0.607567 -4.955285 -13.787966 0.000000 0.000000 0.000000 2.634901 12.580280 -43.531661 -3.700083 -11.746703 34.846289 -0.004542 7.833171 -5.570524 -6.524616 14.903644 -47.026138 -14.585618 -3.217381 8.410322 1.275444 -4.863481 6.221505 9.779052 -2.924378 3.369689 -13.624927 0.872850 -6.584548 11.998354 2.598799 -6.156583 5.913584 1.614866 -1.042534 0.000000 0.000000 0.000000 13.133451 9.077047 -44.502971 44.907469 -50.709248 22.171070 26.881625 -10.831326 -22.043220 0.000000 0.000000 0.000000 -7.125000 0.000000 0.000000 -2.094755 54.384819 0.479353 0.000000 0.000000 0.000000 -5.258061 -8.440614 3.716435 -106.651958 -58.919384 -74.368139 -23.211205 -54.150750 -26.773008 0.000000 0.000000 0.000000 7.125000 0.000000 0.000000 4.069988 1.277948 3.989050
10.951420 14.904840 3.178713 -190.281447 70.221215 -184.940402 0.000000 0.000000 0.000000 -28.269284 11.514558 20.581895 9.639573 17.183963 58.250394 -0.450093 12.022496 -2.076729 0.554402 -4.744255 -13.185397 0.000000 0.000000 0.000000 2.902802 12.409740 -43.337383 -3.761050 -11.832909 35.146767 -0.008526 7.990313 -5.765673 -6.704347 15.067531 -47.728514 -14.439354 -3.215342 8.487967 1.275333 -4.861943 6.236515 9.701556 -2.914835 3.325066 -13.560680 0.922049 -6.572243 11.916262 2.661396 -6.206950 5.876652 1.645497 -1.066402 0.000000 0.000000 0.000000 12.886453 9.638940 -44.372514 44.449608 -50.486043 21.816111 27.035376 -10.465879 -22.181461 0.000000 0.000000 0.000000 -7.125000 0.000000 0.000000 -1.970264 54.564958 0.460359 0.000000 0.000000 0.000000 -5.185883 -8.328243 3.864404 -107.113673 -58.859251 -74.763718 -23.237816 -54.555650 -26.607824 0.000000 0.000000 0.000000 7.125000 0.000000 0.000000 4.032963 1.444745 3.940351
11.070999 14.889367 3.135721 -189.951412 70.258091 -184.787337 0.000000 0.000000 0.000000 -27.975606 11.761130 20.354892 9.934956 17.369439 59.265423 -0.465455 12.129493 -2.527882 0.501237 -4.533226 -12.582828 0.000000 0.000000 0.000000 3.170703 12.239201 -43.143106 -3.822017 -11.919114 35.447246 -0.012510 8.147455 -5.960822 -6.884078 15.231418 -48.430890 -14.293089 -3.213304 8.565611 1.275222 -4.860405 6.251525 9.624060 -2.905291 3.280444 -13.496434 0.971249 -6.559939 11.834170 2.723993 -6.257317 5.839720 1.676129 -1.090269 0.000000 0.000000 0.000000 12.639455 10.200834 -44.242056 43.991747 -50.262839 21.461152 27.189127 -10.100431 -22.319701 0.000000 0.000000 0.000000 -7.125000 0.000000 0.000000 -1.845774 54.745097 0.441365 0.000000 0.000000 0.000000 -5.113706 -8.215872 4.012373 -107.575389 -58.799118 -75.159297 -23.264426 -54.960550 -26.442639 0.000000 0.000000 0.000000 7.125000 0.000000 0.000000 3.995938 1.611541 3.891652
11.189004 14.877058 3.092462 -189.511576 70.301520 -184.511098 0.000000 0.000000 0.000000 -27.612111 11.998282 19.989589 10.255686 17.536996 60.321416 -0.488232 12.376974 -2.733505 0.460820 -4.338258 -12.032604 0.000000 0.000000 0.000000 3.465497 12.064070 -43.035926 -3.925195 -12.054574 35.933198 0.035479 8.720460 -5.492571 -6.678850 15.033377 -47.608395 -14.121462 -3.209245 8.654949 1.290548 -4.856772 6.255540 9.550545 -2.892821 3.215659 -13.510251 1.015070 -6.473581 11.831673 2.780246 -6.346122 5.840156 1.702972 -1.137791 0.000000 0.000000 0.000000 12.354836 10.734809 -44.066564 43.482655 -49.992950 21.072822 27.328658 -9.673961 -22.499708 0.000000 0.000000 0.000000 -7.125000 0.000000 0.000000 -1.746616 54.968933 0.425728 0.000000 0.000000 0.000000 -5.073621 -8.118656 4.170178 -108.062244 -58.726638 -75.575098 -23.325938 -55.402699 -26.286741 0.000000 0.000000 0.000000 7.125000 0.000000 0.000000 3.939345 1.762395 3.826059
11.306620 14.865532 3.049137 -189.044598 70.346569 -184.204412 0.000000 0.000000 0.000000 -27.231357 12.233105 19.590100 10.582682 17.700123 61.387535 -0.512841 12.659181 -2.878435 0.423555 -4.147260 -11.495320 0.000000 0.000000 0.000000 3.766939 11.887804 -42.950276 -4.038808 -12.202210 36.464997 0.096316 9.396263 -4.860335 -6.378465 14.745870 -46.408965 -13.943566 -3.204686 8.747177 1.309691 -4.852621 6.256837 9.478016 -2.879627 3.145890 -13.543366 1.057561 -6.368919 11.848852 2.834931 -6.444429 5.849829 1.728878 -1.191160 0.000000 0.000000 0.000000 12.060917 11.261883 -43.879940 42.960900 -49.711522 20.676242 27.464675 -9.232407 -22.690038 0.000000 0.000000 0.000000 -7.125000 0.000000 0.000000 -1.653721 55.203571 0.410922 0.000000 0.000000 0.000000 -5.041470 -8.025186 4.330415 -108.555314 -58.651107 -75.995897 -23.396077 -55.854055 -26.133139 0.000000 0.000000 0.000000 7.125000 0.000000 0.000000 3.877916 1.909308 3.756290
11.424235 14.854006 3.005811 -188.577619 70.391617 -183.897726 0.000000 0.000000 0.000000 -26.850603 12.467929 19.190612 10.909678 17.863251 62.453654 -0.537450 12.941388 -3.023365 0.386289 -3.956262 -10.958035 0.000000 0.000000 0.000000 4.068380 11.711538 -42.864626 -4.152421 -12.349846 36.996796 0.157153 10.072066 -4.228098 -6.078079 14.458363 -45.209535 -13.765669 -3.200128 8.839405 1.328833 -4.848470 6.258134 9.405486 -2.866433 3.076122 -13.576481 1.100052 -6.264257 11.866030 2.889616 -6.542735 5.859502 1.754784 -1.244529 0.000000 0.000000 0.000000 11.766999 11.788957 -43.693315 42.439144 -49.430093 20.279663 27.600692 -8.790853 -22.880369 0.000000 0.000000 0.000000 -7.125000 0.000000 0.000000 -1.560826 55.438209 0.396116 0.000000 0.000000 0.000000 -5.009319 -7.931716 4.490651 -109.048384 -58.575575 -76.416696 -23.466217 -56.305412 -25.979536 0.000000 0.000000 0.000000 7.125000 0.000000 0.000000 3.816486 2.056221 3.686522
11.541851 14.842480 2.962486 -188.110641 70.436666 -183.591040 0.000000 0.000000 0.000000 -26.469848 12.702752 18.791123 11.236674 18.026378 63.519773 -0.562059 13.223594 -3.168295 0.349024 -3.765264 -10.420751 0.000000 0.000000 0.000000 4.369822 11.535272 -42.778977 -4.266034 -12.497481 37.528596 0.217990 10.747868 -3.595861 -5.777693 14.170857 -44.010105 -13.587773 -3.195569 8.931633 1.347976 -4.844319 6.259432 9.332956 -2.853239 3.006353 -13.609595 1.142544 -6.159594 11.883208 2.944300 -6.641041 5.869175 1.780690 -1.297898 0.000000 0.000000 0.000000 11.473081 12.316031 -43.506690 41.917389 -49.148664 19.883083 27.736709 -8.349299 -23.070700 0.000000 0.000000 0.000000 -7.125000 0.000000 0.000000 -1.467930 55.672847 0.381310 0.000000 0.000000 0.000000 -4.977168 -7.838246 4.650888 -109.541454 -58.500043 -76.837496 -23.536356 -56.756769 -25.825934 0.000000 0.000000 0.000000 7.125000 0.000000 0.000000 3.755056 2.203134 3.616753
11.659466 14.830953 2.919161 -187.643663 70.481714 -183.284354 0.000000 0.000000 0.000000 -26.089094 12.937575 18.391634 11.563670 18.189505 64.585891 -0.586668 13.505801 -3.313225 0.311758 -3.574266 -9.883466 0.000000 0.000000 0.000000 4.671264 11.359007 -42.693327 -4.379646 -12.645117 38.060395 0.278827 11.423671 -2.963625 -5.477308 13.883350 -42.810675 -13.409876 -3.191011 9.023862 1.367118 -4.840168 6.260729 9.260426 -2.840045 2.936584 -13.642710 1.185035 -6.054932 11.900386 2.998985 -6.739348 5.878848 1.806596 -1.351267 0.000000 0.000000 0.000000 11.179162 12.843105 -43.320066 41.395633 -48.867236 19.486504 27.872725 -7.907746 -23.261030 0.000000 0.000000 0.000000 -7.125000 0.000000 0.000000 -1.375035 55.907485 0.366504 0.000000 0.000000 0.000000 -4.945017 -7.744777 4.811124 -110.034523 -58.424511 -77.258295 -23.606495 -57.208126 -25.672331 0.000000 0.000000 0.000000 7.125000 0.000000 0.000000 3.693626 2.350046 3.546984
11.776954 14.831289 2.872816 -187.074214 70.525937 -182.864755 0.000000 0.000000 0.000000 -25.684849 13.154038 17.953846 11.893100 18.338111 65.642094 -0.602434 13.679415 -3.511825 0.289555 -3.460422 -9.563226 0.000000 0.000000 0.000000 5.034955 11.117480 -42.674283 -4.519763 -12.815650 38.692239 0.321273 11.852508 -2.459446 -5.105756 13.451933 -41.171755 -13.179550 -3.182575 9.118351 1.385141 -4.824869 6.273610 9.156238 -2.819902 2.869813 -13.618812 1.217347 -6.030894 11.868470 3.047502 -6.849854 5.864451 1.831886 -1.393074 0.000000 0.000000 0.000000 10.900652 13.322309 -43.132052 40.867064 -48.568686 19.088858 28.002401 -7.483899 -23.390314 0.000000 0.000000 0.000000 -7.125000 0.000000 0.000000 -1.270893 56.075179 0.344899 0.000000 0.000000 0.000000 -4.844562 -7.661268 4.927473 -110.632708 -58.323204 -77.767209 -23.641709 -57.605685 -25.542085 0.000000 0.000000 0.000000 7.125000 0.000000 0.000000 3.656289 2.479478 3.501909
11.894255 14.849024 2.822041 -186.354474 70.568947 -182.279549 0.000000 0.000000 0.000000 -25.246148 13.343572 17.459887 12.226100 18.465418 66.683752 -0.605233 13.693758 -3.789140 0.289444 -3.459736 -9.561318 0.000000 0.000000 0.000000 5.489944 10.780236 -42.752928 -4.698753 -13.019768 39.470814 0.336746 11.919126 -2.143087 -4.629827 12.809449 -38.888249 -12.872326 -3.168455 9.216157 1.401522 -4.793218 6.303482 9.005619 -2.789567 2.807438 -13.511296 1.234729 -6.125105 11.764549 3.086972 -6.978255 5.814752 1.856273 -1.417924 0.000000 0.000000 0.000000 10.644741 13.731304 -42.941999 40.328501 -48.245026 18.689647 28.122778 -7.086022 -23.430063 0.000000 0.000000 0.000000 -7.125000 0.000000 0.000000 -1.150257 56.144689 0.313322 0.000000 0.000000 0.000000 -4.643928 -7.592371 4.979452 -111.385062 -58.184092 -78.405357 -23.625698 -57.924342 -25.446095 0.000000 0.000000 0.000000 7.125000 0.000000 0.000000 3.654287 2.583269 3.493051
